<svg xmlns="http://www.w3.org/2000/svg" viewBox="-10.0 -10.0 965.9 194.3" role="img" aria-label="Mr. Cuban Link"><g transform="translate(0.00 0.00) scale(0.8710)"><defs><clipPath id="h-top"><rect x="-200" y="-200" width="400" height="200"/></clipPath><clipPath id="h-bot"><rect x="-200" y="0" width="400" height="200"/></clipPath><mask id="h-m0" maskUnits="userSpaceOnUse" x="-200" y="-200" width="400" height="400"><rect x="-200" y="-200" width="400" height="400" fill="#fff"/><path d="M-20.0,-22 H20.0 A22,22 0 0 1 20.0,22 H-20.0 A22,22 0 0 1 -20.0,-22 Z" fill="none" stroke="#000" stroke-width="25" clip-path="url(#h-top)"/></mask><mask id="h-m1" maskUnits="userSpaceOnUse" x="-200" y="-200" width="400" height="400"><rect x="-200" y="-200" width="400" height="400" fill="#fff"/><path d="M38.0,-22 H78.0 A22,22 0 0 1 78.0,22 H38.0 A22,22 0 0 1 38.0,-22 Z" fill="none" stroke="#000" stroke-width="25" clip-path="url(#h-top)"/><path d="M-78.0,-22 H-38.0 A22,22 0 0 1 -38.0,22 H-78.0 A22,22 0 0 1 -78.0,-22 Z" fill="none" stroke="#000" stroke-width="25" clip-path="url(#h-bot)"/></mask><mask id="h-m2" maskUnits="userSpaceOnUse" x="-200" y="-200" width="400" height="400"><rect x="-200" y="-200" width="400" height="400" fill="#fff"/><path d="M-20.0,-22 H20.0 A22,22 0 0 1 20.0,22 H-20.0 A22,22 0 0 1 -20.0,-22 Z" fill="none" stroke="#000" stroke-width="25" clip-path="url(#h-bot)"/></mask></defs><g transform="translate(100.0 100.0) rotate(-35)"><path d="M-78.0,-22 H-38.0 A22,22 0 0 1 -38.0,22 H-78.0 A22,22 0 0 1 -78.0,-22 Z" fill="none" stroke="#141518" stroke-width="15" mask="url(#h-m0)"/><path d="M-20.0,-22 H20.0 A22,22 0 0 1 20.0,22 H-20.0 A22,22 0 0 1 -20.0,-22 Z" fill="none" stroke="#c0182f" stroke-width="15" mask="url(#h-m1)"/><path d="M38.0,-22 H78.0 A22,22 0 0 1 78.0,22 H38.0 A22,22 0 0 1 38.0,-22 Z" fill="none" stroke="#141518" stroke-width="15" mask="url(#h-m2)"/></g></g><g transform="translate(176.88 53.60)"><path d="M19.700000000000003 67.0H5.4V0.0H24.3L35.2 24.9L41.5 44.8L47.800000000000004 24.9L58.7 0.0H77.60000000000001V67.0H63.300000000000004V41.9L65.3 14.899999999999999L57.300000000000004 37.2L49.0 55.4H34.0L25.700000000000003 37.2L17.6 14.899999999999999L19.700000000000003 41.9Z" fill="#141518"/><path d="M103.7 67.0H89.4V0.0H120.5Q131.9 0.0 138.75 5.299999999999997Q145.6 10.599999999999994 145.6 20.9Q145.6 29.5 140.39999999999998 34.35Q135.2 39.2 126.6 40.2Q130.3 41.2 132.75 43.45Q135.2 45.7 137.6 49.599999999999994L148.2 67.0H131.7L120.4 48.0Q118.4 44.599999999999994 115.85 43.25Q113.3 41.9 108.9 41.9H103.7ZM120.0 12.699999999999996H103.7V30.4H120.0Q130.6 30.4 130.6 21.599999999999994Q130.6 12.699999999999996 120.0 12.699999999999996Z" fill="#141518"/><path d="M169.1 67.0H153.9V51.5H169.1Z" fill="#c0182f"/><path d="M228.49 67.8Q213.19 67.8 204.19 58.05Q195.19 48.3 195.19 33.4Q195.19 18.5 204.19 8.75Q213.19 -1.0 228.49 -1.0Q239.19 -1.0 246.89 4.049999999999997Q254.59 9.099999999999994 258.49 18.099999999999994L246.29 27.9Q244.69 21.099999999999994 240.19 16.899999999999995Q235.69 12.699999999999996 228.39 12.699999999999996Q219.79 12.699999999999996 215.19 18.349999999999998Q210.59 24.0 210.59 33.4Q210.59 42.8 215.19 48.45Q219.79 54.1 228.39 54.1Q235.69 54.1 240.19 49.900000000000006Q244.69 45.7 246.29 38.9L258.49 48.7Q254.59 57.7 246.89 62.75Q239.19 67.8 228.49 67.8Z" fill="#141518"/><path d="M294.78999999999996 68.0Q280.59 68.0 273.59 60.6Q266.59 53.2 266.59 37.599999999999994V0.0H280.89V37.8Q280.89 46.4 284.24 50.3Q287.59 54.2 294.89 54.2Q302.28999999999996 54.2 305.53999999999996 50.35Q308.78999999999996 46.5 308.78999999999996 37.8V0.0H323.09V37.599999999999994Q323.09 53.3 316.14 60.65Q309.19 68.0 294.78999999999996 68.0Z" fill="#141518"/><path d="M366.78999999999996 67.0H334.28999999999996V0.0H367.19Q377.69 0.0 382.78999999999996 4.699999999999999Q387.89 9.399999999999999 387.89 17.0Q387.89 22.4 384.78999999999996 25.95Q381.69 29.5 377.34000000000003 30.9Q372.99 32.3 367.28999999999996 32.6Q390.28999999999996 33.4 390.28999999999996 49.5Q390.28999999999996 67.0 366.78999999999996 67.0ZM363.39 12.699999999999996H348.59V27.099999999999994H363.59Q372.78999999999996 27.099999999999994 372.78999999999996 19.899999999999995Q372.78999999999996 12.699999999999996 363.39 12.699999999999996ZM364.89 38.599999999999994H348.59V54.3H364.69Q370.39 54.3 372.99 52.4Q375.59 50.5 375.59 46.4Q375.59 38.599999999999994 364.89 38.599999999999994Z" fill="#141518"/><path d="M410.19 67.0H394.99L420.09000000000003 0.0H438.49L463.59000000000003 67.0H447.89L442.59000000000003 52.1H415.59000000000003ZM425.09000000000003 25.599999999999994 419.89 40.0H438.19L433.09000000000003 25.599999999999994L429.09000000000003 11.399999999999999Z" fill="#141518"/><path d="M484.79 67.0H470.49V0.0H484.39000000000004L508.19000000000005 35.0L514.2900000000001 45.5L513.39 29.699999999999996V0.0H527.69V67.0H514.09L489.69000000000005 31.699999999999996L483.69000000000005 21.799999999999997L484.79 38.4Z" fill="#141518"/><path d="M605.4800000000001 67.0H557.6800000000001V0.0H571.9800000000001V54.3H605.4800000000001Z" fill="#141518"/><path d="M627.7800000000001 67.0H613.48V0.0H627.7800000000001Z" fill="#141518"/><path d="M653.9800000000001 67.0H639.6800000000001V0.0H653.58L677.3800000000001 35.0L683.4800000000001 45.5L682.58 29.699999999999996V0.0H696.8800000000001V67.0H683.2800000000001L658.8800000000001 31.699999999999996L652.8800000000001 21.799999999999997L653.9800000000001 38.4Z" fill="#141518"/><path d="M722.9800000000001 67.0H708.6800000000001V0.0H722.9800000000001V19.0L722.58 31.6L731.8800000000001 20.199999999999996L749.9800000000001 0.0H766.7800000000001L743.4800000000001 26.5L767.7800000000001 67.0H751.2800000000001L733.3800000000001 36.9L722.9800000000001 48.2Z" fill="#141518"/></g></svg>